<?xml version="1.0" encoding="utf-8"?>
<svg xmlns="http://www.w3.org/2000/svg" fill="none" height="29" viewBox="0 0 38 29" width="38">
<path d="M36.1 10.4894H32.3V1.85106C32.2994 1.36031 32.099 0.889813 31.7429 0.542795C31.3867 0.195777 30.9037 0.00057155 30.4 0H1.9C1.39627 0.00057155 0.913337 0.195777 0.557145 0.542795C0.200953 0.889813 0.00058666 1.36031 0 1.85106V20.8245C0.00058666 21.3152 0.200953 21.7857 0.557145 22.1327C0.913337 22.4798 1.39627 22.675 1.9 22.6755H15.5167V26.5319H10.7667V29H22.8V26.5319H18.05V22.6755H25.3333V27.1489C25.3339 27.6397 25.5343 28.1102 25.8905 28.4572C26.2467 28.8043 26.7296 28.9994 27.2333 29H36.1C36.6037 28.9994 37.0867 28.8043 37.4429 28.4572C37.7991 28.1102 37.9994 27.6397 38 27.1489V12.3404C37.9994 11.8497 37.7991 11.3792 37.4429 11.0321C37.0867 10.6851 36.6037 10.4899 36.1 10.4894ZM25.3333 12.3404V20.2074H2.53333V2.46809H29.7667V10.4894H27.2333C26.7296 10.4899 26.2467 10.6851 25.8905 11.0321C25.5343 11.3792 25.3339 11.8497 25.3333 12.3404ZM35.4667 26.5319H27.8667V12.9574H35.4667V26.5319Z" fill="#F61A30"/>
</svg>