<?xml version="1.0" encoding="utf-8"?>
<svg xmlns="http://www.w3.org/2000/svg" fill="none" height="37" viewBox="0 0 37 37" width="37">
<path d="M35.8438 17.8752C35.2078 17.8752 34.6875 18.3815 34.6875 19.0002C34.6875 24.5837 30.0199 29.1252 24.2812 29.1252H13.875V24.6252C13.875 24.188 13.6153 23.7927 13.2088 23.6057C13.0512 23.5354 12.885 23.5002 12.7188 23.5002C12.4534 23.5002 12.1903 23.5881 11.978 23.7617L5.04053 29.3867C4.77748 29.6034 4.625 29.9198 4.625 30.2502C4.625 30.5807 4.77741 30.9009 5.04053 31.1144L11.978 36.7394C12.3235 37.0206 12.8055 37.0777 13.2087 36.8954C13.6148 36.712 13.875 36.3112 13.875 35.8752V31.3752H24.2812C31.2946 31.3752 37 25.8227 37 19.0002C37 18.3815 36.4797 17.8752 35.8438 17.8752ZM11.5625 33.4705L7.58789 30.2502L11.5625 27.0299V33.4705ZM12.7188 8.87523L23.06 8.87509L23.125 13.3752C23.125 13.8125 23.3847 14.2077 23.7912 14.3948C23.9488 14.4651 24.115 14.5002 24.2812 14.5002C24.5466 14.5002 24.8097 14.4123 25.022 14.2387L31.9595 8.61374C32.2232 8.39711 32.375 8.0807 32.375 7.68695C32.375 7.2932 32.2226 7.03635 31.9595 6.82351L25.022 1.19851C24.6765 0.917263 24.1945 0.860169 23.7913 1.04249C23.3852 1.29189 23.125 1.6874 23.125 2.12453L23.06 6.62523H12.7188C5.70537 6.62523 0 12.1166 0 19.0002C0 19.6221 0.517133 20.1252 1.15625 20.1252C1.79537 20.1252 2.3125 19.619 2.3125 19.0002C2.3125 13.4174 6.98014 8.87523 12.7188 8.87523ZM25.4375 4.5264L29.4121 7.75023L25.4375 10.9705V4.5264Z" fill="#F61A30"/>
</svg>