<?xml version="1.0" encoding="utf-8"?>
<svg xmlns="http://www.w3.org/2000/svg" fill="none" height="35" viewBox="0 0 35 35" width="35">
<path d="M32.915 0C32.6929 0 32.4792 0.0341797 32.2827 0.102539L12.397 6.66504C11.5391 6.95898 10.9375 7.79297 10.9375 8.75V25.4844C9.77539 24.6094 8.25098 24.0625 6.50098 24.0625C2.87793 24.0625 0 26.5098 0 29.5312C0 32.5527 2.87793 35 6.50098 35C10.124 35 13.002 32.5596 13.002 29.5347L13.125 17.5L32.8125 10.9375V21.1094C31.6504 20.2344 30.126 19.6875 28.376 19.6875C24.7529 19.6875 21.875 22.1313 21.875 25.0947C21.875 28.0581 24.7529 30.502 28.376 30.502C31.999 30.502 34.877 28.0581 34.877 25.0332L35 2.18682C35 0.939258 34.0293 0 32.915 0ZM6.5625 32.8125C4.18701 32.8125 2.1875 31.3701 2.1875 29.5312C2.1875 27.7539 4.18701 26.25 6.5625 26.25C8.93799 26.25 10.9375 27.7539 10.9375 29.5312C10.9375 31.3086 8.94141 32.8125 6.5625 32.8125ZM28.4375 28.4375C26.062 28.4375 24.0625 26.9951 24.0625 25.1562C24.0625 23.4404 26.062 21.875 28.4375 21.875C30.813 21.875 32.8125 23.3789 32.8125 25.1562C32.8125 26.9336 30.8164 28.4375 28.4375 28.4375ZM32.8125 8.62695L13.125 15.1895V8.75H13.0908L32.8125 2.22988V8.62695Z" fill="#F61A30"/>
</svg>