<?xml version="1.0" encoding="utf-8"?>
<svg xmlns="http://www.w3.org/2000/svg" fill="none" height="37" viewBox="0 0 37 37" width="37">
<path d="M13.875 25.4375C13.875 23.284 15.3492 21.4701 17.2787 20.957V6.87246C17.2787 6.29867 17.8641 5.71621 18.435 5.71621C19.1359 5.71621 19.6562 6.29867 19.6562 6.87246V20.957C21.6508 21.4701 23.125 23.284 23.125 25.4375C23.125 27.9885 21.051 30.0625 18.5 30.0625C15.949 30.0625 13.875 27.9885 13.875 25.4375ZM18.5 27.75C19.7791 27.75 20.8125 26.7166 20.8125 25.4375C20.8125 24.1584 19.7791 23.125 18.5 23.125C17.2209 23.125 16.1875 24.1584 16.1875 25.4375C16.1875 26.7166 17.2209 27.75 18.5 27.75ZM8.67188 10.4062C8.67188 9.44512 9.44512 8.67188 10.4062 8.67188C11.3674 8.67188 12.1406 9.44512 12.1406 10.4062C12.1406 11.3674 11.3674 12.1406 10.4062 12.1406C9.44512 12.1406 8.67188 11.3674 8.67188 10.4062ZM8.67188 18.5C8.67188 19.4611 7.89863 20.2344 6.9375 20.2344C5.97998 20.2344 5.20312 19.4611 5.20312 18.5C5.20312 17.5389 5.97998 16.7656 6.9375 16.7656C7.89863 16.7656 8.67188 17.5389 8.67188 18.5ZM28.3281 18.5C28.3281 17.5389 29.1014 16.7656 30.0625 16.7656C31.0236 16.7656 31.7969 17.5389 31.7969 18.5C31.7969 19.4611 31.0236 20.2344 30.0625 20.2344C29.1014 20.2344 28.3281 19.4611 28.3281 18.5ZM28.3281 10.4062C28.3281 11.3674 27.5549 12.1406 26.5938 12.1406C25.6326 12.1406 24.8594 11.3674 24.8594 10.4062C24.8594 9.44512 25.6326 8.67188 26.5938 8.67188C27.5549 8.67188 28.3281 9.44512 28.3281 10.4062ZM0 18.5C0 8.28164 8.28164 0 18.5 0C28.7184 0 37 8.28164 37 18.5C37 28.7184 28.7184 37 18.5 37C8.28164 37 0 28.7184 0 18.5ZM18.5 34.6875C27.4393 34.6875 34.6875 27.4393 34.6875 18.5C34.6875 9.56074 27.4393 2.3125 18.5 2.3125C9.56074 2.3125 2.3125 9.56074 2.3125 18.5C2.3125 27.4393 9.56074 34.6875 18.5 34.6875Z" fill="#F61A30"/>
</svg>