<?xml version="1.0" encoding="utf-8"?>
<svg xmlns="http://www.w3.org/2000/svg" fill="none" height="38" viewBox="0 0 28 38" width="28">
<path d="M19.6168 2.12198C19.2697 0.875534 18.1098 0 16.7918 0H11.805C10.487 0 9.32706 0.871221 8.97997 2.12198L0.843063 31.502C0.601416 32.3732 0.781552 33.2832 1.34393 34.0035C1.66027 34.4089 2.06887 34.7151 2.5302 34.9092V35.526C2.5302 36.7077 3.50996 37.6738 4.7182 37.6738H7.12588C8.32972 37.6738 9.31388 36.712 9.31388 35.526V35.1335H19.3005V35.526C19.3005 36.7077 20.2803 37.6738 21.4885 37.6738H23.883C25.0868 37.6738 26.071 36.712 26.071 35.526V34.9092C26.5323 34.7194 26.9409 34.4089 27.2573 34.0035C27.8152 33.2875 27.9998 32.3732 27.7581 31.502L22.9032 13.9999L21.6686 16.1219L23.5051 22.7423H15.812L18.0923 18.8175C18.1098 18.7744 18.1274 18.7356 18.1494 18.6967L23.8083 8.96667C23.8303 8.92786 23.8566 8.88904 23.8874 8.85454L24.028 8.61301C24.0631 8.61301 24.0983 8.61732 24.1334 8.61732C24.1554 8.61732 24.1774 8.61732 24.1949 8.61732C24.3619 8.61301 24.5289 8.58713 24.6826 8.53969C25.4954 8.30679 26.093 7.56927 26.093 6.69374C26.093 6.30125 25.9699 5.93465 25.7634 5.62843L26.5894 4.20946C26.8311 3.79542 26.6817 3.26923 26.2599 3.03202C25.8381 2.79481 25.3021 2.94145 25.0605 3.35549L24.2345 4.77446C24.1993 4.77446 24.1642 4.77015 24.129 4.77015C23.0482 4.77015 22.1695 5.63274 22.1695 6.69374C22.1695 7.08622 22.2925 7.45282 22.499 7.75904L21.6027 9.29877L19.6168 2.12198ZM7.54767 35.5217C7.54767 35.7546 7.35435 35.9443 7.11709 35.9443H4.70941C4.47216 35.9443 4.27884 35.7546 4.27884 35.5217V35.1292H7.54327V35.5217H7.54767ZM24.3136 35.5217C24.3136 35.7546 24.1202 35.9443 23.883 35.9443H21.4753C21.2381 35.9443 21.0447 35.7546 21.0447 35.5217V35.1292H24.3092V35.5217H24.3136ZM26.0578 31.9548C26.1545 32.3042 26.0798 32.6665 25.8601 32.9554C25.636 33.2444 25.2977 33.4083 24.9287 33.4083H3.66813C3.29907 33.4083 2.96077 33.2444 2.7367 32.9554C2.51262 32.6665 2.44233 32.3042 2.53898 31.9548L4.61275 24.4675H23.984L26.0578 31.9548ZM13.7865 22.7423H5.08726L10.6759 2.57485C10.8121 2.07454 11.2778 1.72519 11.805 1.72519H16.7874C17.3146 1.72519 17.7803 2.07454 17.9165 2.57485L20.3681 11.4208L13.7865 22.7423Z" fill="#F61A30"/>
</svg>